<?xml version="1.0" encoding="utf-8"?>
<!-- Generator: Adobe Illustrator 23.0.1, SVG Export Plug-In . SVG Version: 6.00 Build 0)  -->
<svg version="1.1" id="Layer_1" xmlns="http://www.w3.org/2000/svg" xmlns:xlink="http://www.w3.org/1999/xlink" x="0px" y="0px"
	 viewBox="0 0 100 100" style="enable-background:new 0 0 100 100;" xml:space="preserve">
<path d="M50,5c-0.3,0-0.7,0-1,0v24.5h4.1V9.2C74.2,10.8,90.9,28.5,90.9,50c0,22.6-18.4,40.9-40.9,40.9C27.4,90.9,9.1,72.6,9.1,50
	c0-11.1,4.4-21.1,11.6-28.5l-2.9-2.9C9.9,26.7,5,37.8,5,50c0,24.9,20.1,45,45,45s45-20.1,45-45S74.9,5,50,5"/>
<path d="M51.5,55.1c2.5-0.6,5.1-2.1,4.9-6.1c-0.1-1.8-1.1-3.5-2.6-4.5l-26.3-18L45,52.5C46.4,54.7,49,55.7,51.5,55.1"/>
</svg>
